<?xml version="1.0" encoding="UTF-8" ?>
<svg version="1.1" width="64" height="64" xmlns="http://www.w3.org/2000/svg" shape-rendering="crispEdges">
<rect x="0" y="0" width="64" height="13" fill="#DBDBDB" />
<rect x="0" y="13" width="31" height="1" fill="#DBDBDB" />
<rect x="31" y="13" width="2" height="3" fill="#161616" />
<rect x="33" y="13" width="31" height="1" fill="#DBDBDB" />
<rect x="0" y="14" width="24" height="1" fill="#DBDBDB" />
<rect x="24" y="14" width="1" height="2" fill="#000000" />
<rect x="25" y="14" width="1" height="1" fill="#DBDBDB" />
<rect x="26" y="14" width="1" height="1" fill="#000000" />
<rect x="27" y="14" width="2" height="1" fill="#DBDBDB" />
<rect x="29" y="14" width="2" height="1" fill="#161616" />
<rect x="33" y="14" width="2" height="1" fill="#161616" />
<rect x="35" y="14" width="3" height="1" fill="#DBDBDB" />
<rect x="38" y="14" width="1" height="3" fill="#000000" />
<rect x="39" y="14" width="25" height="1" fill="#DBDBDB" />
<rect x="0" y="15" width="23" height="1" fill="#DBDBDB" />
<rect x="23" y="15" width="1" height="2" fill="#000000" />
<rect x="25" y="15" width="1" height="2" fill="#000000" />
<rect x="26" y="15" width="1" height="4" fill="#161616" />
<rect x="27" y="15" width="4" height="1" fill="#000000" />
<rect x="33" y="15" width="4" height="1" fill="#000000" />
<rect x="37" y="15" width="1" height="4" fill="#161616" />
<rect x="39" y="15" width="1" height="1" fill="#000000" />
<rect x="40" y="15" width="24" height="1" fill="#DBDBDB" />
<rect x="0" y="16" width="22" height="1" fill="#DBDBDB" />
<rect x="22" y="16" width="1" height="1" fill="#000000" />
<rect x="24" y="16" width="1" height="3" fill="#161616" />
<rect x="27" y="16" width="3" height="6" fill="#161616" />
<rect x="30" y="16" width="1" height="1" fill="#000000" />
<rect x="31" y="16" width="2" height="1" fill="#363636" />
<rect x="33" y="16" width="1" height="1" fill="#000000" />
<rect x="34" y="16" width="3" height="6" fill="#161616" />
<rect x="39" y="16" width="1" height="3" fill="#161616" />
<rect x="40" y="16" width="3" height="1" fill="#000000" />
<rect x="43" y="16" width="21" height="2" fill="#DBDBDB" />
<rect x="0" y="17" width="21" height="1" fill="#DBDBDB" />
<rect x="21" y="17" width="3" height="1" fill="#161616" />
<rect x="25" y="17" width="1" height="5" fill="#161616" />
<rect x="30" y="17" width="4" height="1" fill="#161616" />
<rect x="38" y="17" width="1" height="5" fill="#161616" />
<rect x="40" y="17" width="3" height="1" fill="#161616" />
<rect x="0" y="18" width="19" height="2" fill="#DBDBDB" />
<rect x="19" y="18" width="1" height="1" fill="#000000" />
<rect x="20" y="18" width="3" height="1" fill="#161616" />
<rect x="23" y="18" width="1" height="1" fill="#000000" />
<rect x="30" y="18" width="1" height="1" fill="#161616" />
<rect x="31" y="18" width="2" height="2" fill="#000000" />
<rect x="33" y="18" width="1" height="1" fill="#161616" />
<rect x="40" y="18" width="1" height="1" fill="#000000" />
<rect x="41" y="18" width="3" height="1" fill="#161616" />
<rect x="44" y="18" width="1" height="1" fill="#000000" />
<rect x="45" y="18" width="19" height="2" fill="#DBDBDB" />
<rect x="19" y="19" width="3" height="1" fill="#161616" />
<rect x="22" y="19" width="1" height="1" fill="#000000" />
<rect x="23" y="19" width="1" height="7" fill="#161616" />
<rect x="24" y="19" width="1" height="1" fill="#000000" />
<rect x="26" y="19" width="1" height="1" fill="#363636" />
<rect x="30" y="19" width="1" height="1" fill="#000000" />
<rect x="33" y="19" width="1" height="1" fill="#000000" />
<rect x="37" y="19" width="1" height="1" fill="#363636" />
<rect x="39" y="19" width="1" height="1" fill="#000000" />
<rect x="40" y="19" width="1" height="7" fill="#161616" />
<rect x="41" y="19" width="1" height="1" fill="#000000" />
<rect x="42" y="19" width="3" height="1" fill="#161616" />
<rect x="0" y="20" width="18" height="4" fill="#DBDBDB" />
<rect x="18" y="20" width="1" height="2" fill="#000000" />
<rect x="19" y="20" width="1" height="3" fill="#161616" />
<rect x="20" y="20" width="2" height="1" fill="#363636" />
<rect x="22" y="20" width="1" height="6" fill="#161616" />
<rect x="24" y="20" width="1" height="5" fill="#161616" />
<rect x="26" y="20" width="1" height="1" fill="#161616" />
<rect x="30" y="20" width="4" height="1" fill="#161616" />
<rect x="37" y="20" width="1" height="1" fill="#161616" />
<rect x="39" y="20" width="1" height="5" fill="#161616" />
<rect x="41" y="20" width="1" height="6" fill="#161616" />
<rect x="42" y="20" width="2" height="1" fill="#363636" />
<rect x="44" y="20" width="1" height="3" fill="#161616" />
<rect x="45" y="20" width="1" height="2" fill="#000000" />
<rect x="46" y="20" width="18" height="4" fill="#DBDBDB" />
<rect x="20" y="21" width="2" height="1" fill="#161616" />
<rect x="26" y="21" width="1" height="2" fill="#000000" />
<rect x="30" y="21" width="1" height="5" fill="#161616" />
<rect x="31" y="21" width="2" height="3" fill="#000000" />
<rect x="33" y="21" width="1" height="5" fill="#161616" />
<rect x="37" y="21" width="1" height="2" fill="#000000" />
<rect x="42" y="21" width="2" height="1" fill="#161616" />
<rect x="18" y="22" width="1" height="2" fill="#161616" />
<rect x="20" y="22" width="1" height="5" fill="#000000" />
<rect x="21" y="22" width="1" height="3" fill="#161616" />
<rect x="25" y="22" width="1" height="2" fill="#000000" />
<rect x="27" y="22" width="1" height="1" fill="#000000" />
<rect x="28" y="22" width="1" height="4" fill="#161616" />
<rect x="29" y="22" width="1" height="1" fill="#363636" />
<rect x="34" y="22" width="1" height="1" fill="#363636" />
<rect x="35" y="22" width="1" height="4" fill="#161616" />
<rect x="36" y="22" width="1" height="1" fill="#000000" />
<rect x="38" y="22" width="1" height="2" fill="#000000" />
<rect x="42" y="22" width="1" height="3" fill="#161616" />
<rect x="43" y="22" width="1" height="5" fill="#000000" />
<rect x="45" y="22" width="1" height="2" fill="#161616" />
<rect x="19" y="23" width="1" height="3" fill="#000000" />
<rect x="26" y="23" width="2" height="3" fill="#161616" />
<rect x="29" y="23" width="1" height="1" fill="#161616" />
<rect x="34" y="23" width="1" height="1" fill="#161616" />
<rect x="36" y="23" width="2" height="3" fill="#161616" />
<rect x="44" y="23" width="1" height="3" fill="#000000" />
<rect x="0" y="24" width="17" height="26" fill="#DBDBDB" />
<rect x="17" y="24" width="2" height="1" fill="#000000" />
<rect x="25" y="24" width="1" height="1" fill="#161616" />
<rect x="29" y="24" width="1" height="2" fill="#000000" />
<rect x="31" y="24" width="2" height="3" fill="#161616" />
<rect x="34" y="24" width="1" height="2" fill="#000000" />
<rect x="38" y="24" width="1" height="1" fill="#161616" />
<rect x="45" y="24" width="2" height="1" fill="#000000" />
<rect x="47" y="24" width="17" height="26" fill="#DBDBDB" />
<rect x="17" y="25" width="1" height="2" fill="#000000" />
<rect x="18" y="25" width="1" height="2" fill="#161616" />
<rect x="21" y="25" width="1" height="1" fill="#000000" />
<rect x="24" y="25" width="2" height="1" fill="#000000" />
<rect x="38" y="25" width="2" height="1" fill="#000000" />
<rect x="42" y="25" width="1" height="1" fill="#000000" />
<rect x="45" y="25" width="1" height="2" fill="#161616" />
<rect x="46" y="25" width="1" height="2" fill="#000000" />
<rect x="19" y="26" width="1" height="2" fill="#161616" />
<rect x="21" y="26" width="1" height="12" fill="#EEC39A" />
<rect x="22" y="26" width="2" height="1" fill="#000000" />
<rect x="24" y="26" width="1" height="1" fill="#EEC39A" />
<rect x="25" y="26" width="1" height="1" fill="#000000" />
<rect x="26" y="26" width="4" height="1" fill="#EEC39A" />
<rect x="30" y="26" width="1" height="1" fill="#000000" />
<rect x="33" y="26" width="1" height="1" fill="#000000" />
<rect x="34" y="26" width="4" height="1" fill="#EEC39A" />
<rect x="38" y="26" width="1" height="1" fill="#000000" />
<rect x="39" y="26" width="1" height="1" fill="#EEC39A" />
<rect x="40" y="26" width="2" height="1" fill="#000000" />
<rect x="42" y="26" width="1" height="12" fill="#EEC39A" />
<rect x="44" y="26" width="1" height="2" fill="#161616" />
<rect x="17" y="27" width="2" height="22" fill="#DBDBDB" />
<rect x="20" y="27" width="1" height="12" fill="#161616" />
<rect x="22" y="27" width="2" height="11" fill="#EEC39A" />
<rect x="24" y="27" width="5" height="1" fill="#161616" />
<rect x="29" y="27" width="6" height="8" fill="#EEC39A" />
<rect x="35" y="27" width="5" height="1" fill="#161616" />
<rect x="40" y="27" width="2" height="11" fill="#EEC39A" />
<rect x="43" y="27" width="1" height="12" fill="#161616" />
<rect x="45" y="27" width="2" height="22" fill="#DBDBDB" />
<rect x="19" y="28" width="1" height="21" fill="#DBDBDB" />
<rect x="24" y="28" width="5" height="1" fill="#EEC39A" />
<rect x="35" y="28" width="5" height="1" fill="#EEC39A" />
<rect x="44" y="28" width="1" height="21" fill="#DBDBDB" />
<rect x="24" y="29" width="1" height="1" fill="#EEC39A" />
<rect x="25" y="29" width="3" height="1" fill="#000000" />
<rect x="28" y="29" width="1" height="1" fill="#EEC39A" />
<rect x="35" y="29" width="1" height="1" fill="#EEC39A" />
<rect x="36" y="29" width="3" height="1" fill="#000000" />
<rect x="39" y="29" width="1" height="1" fill="#EEC39A" />
<rect x="24" y="30" width="1" height="2" fill="#000000" />
<rect x="25" y="30" width="3" height="1" fill="#FFFFFF" />
<rect x="28" y="30" width="1" height="2" fill="#000000" />
<rect x="35" y="30" width="1" height="2" fill="#000000" />
<rect x="36" y="30" width="3" height="1" fill="#FFFFFF" />
<rect x="39" y="30" width="1" height="2" fill="#000000" />
<rect x="25" y="31" width="1" height="1" fill="#FFFFFF" />
<rect x="26" y="31" width="2" height="2" fill="#000000" />
<rect x="36" y="31" width="2" height="2" fill="#000000" />
<rect x="38" y="31" width="1" height="1" fill="#FFFFFF" />
<rect x="24" y="32" width="1" height="10" fill="#EEC39A" />
<rect x="25" y="32" width="1" height="1" fill="#000000" />
<rect x="28" y="32" width="1" height="8" fill="#EEC39A" />
<rect x="35" y="32" width="1" height="8" fill="#EEC39A" />
<rect x="38" y="32" width="1" height="1" fill="#000000" />
<rect x="39" y="32" width="1" height="10" fill="#EEC39A" />
<rect x="25" y="33" width="3" height="9" fill="#EEC39A" />
<rect x="36" y="33" width="3" height="9" fill="#EEC39A" />
<rect x="29" y="35" width="2" height="6" fill="#EEC39A" />
<rect x="31" y="35" width="2" height="1" fill="#000000" />
<rect x="33" y="35" width="2" height="6" fill="#EEC39A" />
<rect x="31" y="36" width="2" height="5" fill="#EEC39A" />
<rect x="21" y="38" width="1" height="2" fill="#161616" />
<rect x="22" y="38" width="1" height="1" fill="#EDAE6E" />
<rect x="23" y="38" width="1" height="1" fill="#EEC39A" />
<rect x="40" y="38" width="1" height="1" fill="#EEC39A" />
<rect x="41" y="38" width="1" height="1" fill="#EDAE6E" />
<rect x="42" y="38" width="1" height="2" fill="#161616" />
<rect x="20" y="39" width="1" height="10" fill="#DBDBDB" />
<rect x="22" y="39" width="1" height="1" fill="#D9A066" />
<rect x="23" y="39" width="1" height="2" fill="#EDAE6E" />
<rect x="40" y="39" width="1" height="2" fill="#EDAE6E" />
<rect x="41" y="39" width="1" height="1" fill="#D9A066" />
<rect x="43" y="39" width="1" height="10" fill="#DBDBDB" />
<rect x="21" y="40" width="1" height="1" fill="#000000" />
<rect x="22" y="40" width="1" height="1" fill="#161616" />
<rect x="28" y="40" width="1" height="1" fill="#000000" />
<rect x="35" y="40" width="1" height="1" fill="#000000" />
<rect x="41" y="40" width="1" height="1" fill="#161616" />
<rect x="42" y="40" width="1" height="1" fill="#000000" />
<rect x="21" y="41" width="1" height="8" fill="#DBDBDB" />
<rect x="22" y="41" width="1" height="1" fill="#000000" />
<rect x="23" y="41" width="1" height="2" fill="#161616" />
<rect x="28" y="41" width="1" height="4" fill="#EEC39A" />
<rect x="29" y="41" width="6" height="1" fill="#000000" />
<rect x="35" y="41" width="1" height="4" fill="#EEC39A" />
<rect x="40" y="41" width="1" height="2" fill="#161616" />
<rect x="41" y="41" width="1" height="1" fill="#000000" />
<rect x="42" y="41" width="1" height="8" fill="#DBDBDB" />
<rect x="22" y="42" width="1" height="7" fill="#DBDBDB" />
<rect x="24" y="42" width="2" height="1" fill="#161616" />
<rect x="26" y="42" width="2" height="2" fill="#EEC39A" />
<rect x="29" y="42" width="6" height="3" fill="#EEC39A" />
<rect x="36" y="42" width="2" height="2" fill="#EEC39A" />
<rect x="38" y="42" width="2" height="1" fill="#161616" />
<rect x="41" y="42" width="1" height="7" fill="#DBDBDB" />
<rect x="23" y="43" width="2" height="6" fill="#DBDBDB" />
<rect x="25" y="43" width="1" height="1" fill="#161616" />
<rect x="38" y="43" width="1" height="1" fill="#161616" />
<rect x="39" y="43" width="2" height="6" fill="#DBDBDB" />
<rect x="25" y="44" width="2" height="1" fill="#000000" />
<rect x="27" y="44" width="1" height="1" fill="#161616" />
<rect x="36" y="44" width="1" height="1" fill="#161616" />
<rect x="37" y="44" width="2" height="1" fill="#000000" />
<rect x="25" y="45" width="2" height="4" fill="#DBDBDB" />
<rect x="27" y="45" width="1" height="12" fill="#000000" />
<rect x="28" y="45" width="8" height="1" fill="#D9A066" />
<rect x="36" y="45" width="1" height="12" fill="#000000" />
<rect x="37" y="45" width="2" height="4" fill="#DBDBDB" />
<rect x="28" y="46" width="8" height="6" fill="#000000" />
<rect x="17" y="49" width="1" height="1" fill="#DBDBDB" />
<rect x="18" y="49" width="9" height="8" fill="#000000" />
<rect x="37" y="49" width="9" height="8" fill="#000000" />
<rect x="46" y="49" width="1" height="1" fill="#DBDBDB" />
<rect x="0" y="50" width="16" height="1" fill="#DBDBDB" />
<rect x="16" y="50" width="2" height="9" fill="#000000" />
<rect x="46" y="50" width="2" height="9" fill="#000000" />
<rect x="48" y="50" width="16" height="1" fill="#DBDBDB" />
<rect x="0" y="51" width="15" height="1" fill="#DBDBDB" />
<rect x="15" y="51" width="1" height="13" fill="#000000" />
<rect x="48" y="51" width="1" height="13" fill="#000000" />
<rect x="49" y="51" width="15" height="1" fill="#DBDBDB" />
<rect x="0" y="52" width="14" height="1" fill="#DBDBDB" />
<rect x="14" y="52" width="1" height="12" fill="#000000" />
<rect x="28" y="52" width="3" height="2" fill="#000000" />
<rect x="31" y="52" width="2" height="10" fill="#404082" />
<rect x="33" y="52" width="3" height="2" fill="#000000" />
<rect x="49" y="52" width="1" height="12" fill="#000000" />
<rect x="50" y="52" width="14" height="1" fill="#DBDBDB" />
<rect x="0" y="53" width="12" height="1" fill="#DBDBDB" />
<rect x="12" y="53" width="2" height="1" fill="#000000" />
<rect x="50" y="53" width="2" height="1" fill="#000000" />
<rect x="52" y="53" width="12" height="1" fill="#DBDBDB" />
<rect x="0" y="54" width="11" height="1" fill="#DBDBDB" />
<rect x="11" y="54" width="2" height="1" fill="#000000" />
<rect x="13" y="54" width="1" height="1" fill="#222034" />
<rect x="28" y="54" width="2" height="1" fill="#000000" />
<rect x="30" y="54" width="1" height="8" fill="#404082" />
<rect x="33" y="54" width="1" height="8" fill="#404082" />
<rect x="34" y="54" width="2" height="1" fill="#000000" />
<rect x="50" y="54" width="1" height="1" fill="#222034" />
<rect x="51" y="54" width="2" height="1" fill="#000000" />
<rect x="53" y="54" width="11" height="1" fill="#DBDBDB" />
<rect x="0" y="55" width="10" height="1" fill="#DBDBDB" />
<rect x="10" y="55" width="2" height="1" fill="#000000" />
<rect x="12" y="55" width="1" height="1" fill="#222034" />
<rect x="13" y="55" width="1" height="9" fill="#000000" />
<rect x="28" y="55" width="1" height="1" fill="#000000" />
<rect x="29" y="55" width="1" height="8" fill="#404082" />
<rect x="34" y="55" width="1" height="8" fill="#404082" />
<rect x="35" y="55" width="1" height="1" fill="#000000" />
<rect x="50" y="55" width="1" height="9" fill="#000000" />
<rect x="51" y="55" width="1" height="1" fill="#222034" />
<rect x="52" y="55" width="2" height="1" fill="#000000" />
<rect x="54" y="55" width="10" height="1" fill="#DBDBDB" />
<rect x="0" y="56" width="9" height="8" fill="#DBDBDB" />
<rect x="9" y="56" width="2" height="1" fill="#000000" />
<rect x="11" y="56" width="1" height="1" fill="#222034" />
<rect x="12" y="56" width="1" height="8" fill="#000000" />
<rect x="28" y="56" width="1" height="3" fill="#404082" />
<rect x="35" y="56" width="1" height="3" fill="#404082" />
<rect x="51" y="56" width="1" height="8" fill="#000000" />
<rect x="52" y="56" width="1" height="1" fill="#222034" />
<rect x="53" y="56" width="2" height="1" fill="#000000" />
<rect x="55" y="56" width="9" height="8" fill="#DBDBDB" />
<rect x="9" y="57" width="1" height="7" fill="#000000" />
<rect x="10" y="57" width="1" height="7" fill="#222034" />
<rect x="11" y="57" width="1" height="7" fill="#000000" />
<rect x="18" y="57" width="6" height="7" fill="#000000" />
<rect x="24" y="57" width="4" height="1" fill="#404082" />
<rect x="36" y="57" width="4" height="1" fill="#404082" />
<rect x="40" y="57" width="6" height="7" fill="#000000" />
<rect x="52" y="57" width="1" height="7" fill="#000000" />
<rect x="53" y="57" width="1" height="7" fill="#222034" />
<rect x="54" y="57" width="1" height="7" fill="#000000" />
<rect x="24" y="58" width="2" height="6" fill="#000000" />
<rect x="26" y="58" width="2" height="1" fill="#404082" />
<rect x="36" y="58" width="2" height="1" fill="#404082" />
<rect x="38" y="58" width="2" height="6" fill="#000000" />
<rect x="16" y="59" width="1" height="5" fill="#000000" />
<rect x="17" y="59" width="1" height="5" fill="#222034" />
<rect x="26" y="59" width="3" height="2" fill="#000000" />
<rect x="35" y="59" width="3" height="2" fill="#000000" />
<rect x="46" y="59" width="1" height="5" fill="#222034" />
<rect x="47" y="59" width="1" height="5" fill="#000000" />
<rect x="26" y="61" width="2" height="2" fill="#000000" />
<rect x="28" y="61" width="1" height="3" fill="#404082" />
<rect x="35" y="61" width="1" height="3" fill="#404082" />
<rect x="36" y="61" width="2" height="2" fill="#000000" />
<rect x="30" y="62" width="4" height="2" fill="#000000" />
<rect x="26" y="63" width="1" height="1" fill="#000000" />
<rect x="27" y="63" width="1" height="1" fill="#404082" />
<rect x="29" y="63" width="1" height="1" fill="#000000" />
<rect x="34" y="63" width="1" height="1" fill="#000000" />
<rect x="36" y="63" width="1" height="1" fill="#404082" />
<rect x="37" y="63" width="1" height="1" fill="#000000" />
</svg>